<svg t="1731742907024" class="icon" viewBox="0 0 1024 1024" version="1.1" xmlns="http://www.w3.org/2000/svg" p-id="5697" width="200" height="200">
<!-- <path d="M20.48 30.72h983.04v983.04H20.48z" fill="#d6e3e8" p-id="5698"></path> -->
<path d="M512 122.88a398.21312 398.21312 0 0 0-282.37824 116.98176A398.21312 398.21312 0 0 0 112.64 522.24a398.21312 398.21312 0 0 0 116.98176 282.37824l21.7088-21.7088-21.7088 21.7088A398.21312 398.21312 0 0 0 512 921.6a398.21312 398.21312 0 0 0 282.37824-116.98176 398.21312 398.21312 0 0 0 116.98176-282.37824 398.21312 398.21312 0 0 0-116.98176-282.37824l-21.7088 21.7088 21.7088-21.7088A398.21312 398.21312 0 0 0 512 122.88zM273.03936 283.27936A336.77312 336.77312 0 0 1 512 184.32c93.30688 0 177.7664 37.80608 238.96064 98.95936a336.77312 336.77312 0 0 1 98.95936 238.96064c0 93.30688-37.80608 177.7664-98.95936 238.96064A336.77312 336.77312 0 0 1 512 860.16a336.77312 336.77312 0 0 1-238.96064-98.95936A336.77312 336.77312 0 0 1 174.08 522.24c0-93.30688 37.80608-177.7664 98.95936-238.96064zM418.816 392.8064a34.816 34.816 0 0 1 53.248-29.53216l207.13472 129.4336a34.816 34.816 0 0 1 0 59.06432l-207.13472 129.4336a34.816 34.816 0 0 1-53.248-29.4912V392.8064z" fill="#888888" p-id="5699"></path>
</svg>