<svg t="1732349486869" class="icon" viewBox="0 0 1024 1024" version="1.1" xmlns="http://www.w3.org/2000/svg" p-id="4333" width="200" height="200">
<path d="M229.62176 239.86176A398.21312 398.21312 0 0 1 512 122.88a398.21312 398.21312 0 0 1 282.37824 116.98176l-21.7088 21.7088 21.7088-21.7088a398.21312 398.21312 0 0 1 116.98176 282.37824 398.21312 398.21312 0 0 1-116.98176 282.37824A398.21312 398.21312 0 0 1 512 921.6a398.21312 398.21312 0 0 1-282.37824-116.98176l21.7088-21.7088-21.7088 21.7088A398.21312 398.21312 0 0 1 112.64 522.24a398.21312 398.21312 0 0 1 116.98176-282.37824zM512 184.32c-93.30688 0-177.7664 37.80608-238.96064 98.95936A336.77312 336.77312 0 0 0 174.08 522.24c0 93.30688 37.80608 177.7664 98.95936 238.96064A336.77312 336.77312 0 0 0 512 860.16c93.30688 0 177.7664-37.80608 238.96064-98.95936a336.77312 336.77312 0 0 0 98.95936-238.96064c0-93.30688-37.80608-177.7664-98.95936-238.96064A336.77312 336.77312 0 0 0 512 184.32zM423.5264 357.74464a30.72 30.72 0 0 1 30.72 30.72v267.55072a30.72 30.72 0 1 1-61.44 0V388.46464a30.72 30.72 0 0 1 30.72-30.72z m207.6672 30.72a30.72 30.72 0 0 0-61.44 0v267.55072a30.72 30.72 0 1 0 61.44 0V388.46464z" fill="#888888" p-id="4335"></path>
</svg>